<svg width="29" height="28" viewBox="0 0 29 28" fill="none" xmlns="http://www.w3.org/2000/svg">
<path fill-rule="evenodd" clip-rule="evenodd" d="M15 0C7.268 0 1 6.268 1 14C1 21.732 7.268 28 15 28C22.732 28 29 21.732 29 14C29 6.268 22.732 0 15 0ZM14.61 11.864L14.58 11.379C14.493 10.124 15.266 8.977 16.49 8.532C16.94 8.374 17.705 8.354 18.204 8.492C18.4 8.552 18.772 8.75 19.036 8.928L19.516 9.254L20.045 9.086C20.339 8.996 20.73 8.848 20.907 8.75C21.073 8.66 21.22 8.611 21.22 8.64C21.22 8.809 20.858 9.382 20.554 9.699C20.143 10.144 20.261 10.183 21.093 9.887C21.593 9.718 21.603 9.718 21.504 9.907C21.445 10.005 21.142 10.351 20.819 10.667C20.27 11.211 20.241 11.271 20.241 11.725C20.241 12.427 19.908 13.89 19.575 14.691C18.958 16.194 17.636 17.746 16.314 18.527C14.454 19.625 11.976 19.901 9.89 19.259C9.195 19.041 8 18.488 8 18.389C8 18.359 8.362 18.319 8.803 18.309C9.72495 18.289 10.6272 18.038 11.427 17.579L11.957 17.262L11.349 17.054C10.487 16.758 9.714 16.075 9.518 15.433C9.459 15.225 9.478 15.215 10.028 15.215L10.595 15.205L10.115 14.978C9.547 14.691 9.028 14.207 8.774 13.713C8.588 13.357 8.353 12.457 8.421 12.388C8.441 12.358 8.646 12.418 8.881 12.496C9.557 12.744 9.645 12.684 9.253 12.269C8.519 11.518 8.293 10.401 8.646 9.343L8.813 8.868L9.459 9.511C10.781 10.806 12.339 11.577 14.12 11.805L14.61 11.864Z" fill="#94A0A4"/>
</svg>
